<svg width="20" height="20" viewBox="0 0 20 20" fill="none" xmlns="http://www.w3.org/2000/svg">
<path d="M19.3917 13.8022L11.6665 6.07781V2.65228C11.6665 2.1115 11.5465 1.56655 11.3099 1.05823L11.1341 0.724939C10.9266 0.277477 10.4924 0 9.99998 0C9.50753 0 9.07338 0.277477 8.87508 0.705761L8.68091 1.07655C8.45343 1.56651 8.33344 2.11064 8.33344 2.65224V6.07777L0.610773 13.8005C0.217485 14.1938 0.000823975 14.7163 0.000823975 15.2729V16.2495C0.000823975 16.402 0.0841373 16.542 0.217485 16.6145C0.350795 16.6878 0.51414 16.6828 0.64245 16.5995L8.49511 11.5674C8.5726 12.8281 8.6776 13.8805 8.8059 15.1613L8.93839 16.4737L6.02114 18.401C5.90365 18.4793 5.83365 18.6093 5.83365 18.7493V19.5825C5.83365 19.7083 5.89115 19.8283 5.98946 19.9075C6.08863 19.9875 6.21776 20.0175 6.34025 19.99L9.99994 19.1759L13.6596 19.99C13.6896 19.9967 13.7196 20 13.7496 20C13.8438 20 13.9354 19.9683 14.0104 19.9083C14.1087 19.8283 14.1662 19.7083 14.1662 19.5825V18.7493C14.1662 18.6093 14.0962 18.4785 13.9788 18.4018L11.0615 16.477L11.194 15.1604C11.3223 13.8813 11.4273 12.8298 11.5048 11.569L19.3574 16.5994C19.4866 16.6827 19.6491 16.6869 19.7816 16.6144C19.9158 16.5419 19.9991 16.4019 19.9991 16.2495V15.2729C19.9991 14.7163 19.7833 14.1938 19.3917 13.8022Z" fill="#FEBE02"/>
</svg>
