<svg width="19" height="20" viewBox="0 0 19 20" fill="none" xmlns="http://www.w3.org/2000/svg">
<path d="M7.20112 19V14.7619H12.5382V19C12.5382 19.5523 12.986 20 13.5382 20H17.8457C18.398 20 18.8457 19.5523 18.8457 19V8.93466C18.8457 8.39773 18.6299 7.88336 18.2467 7.50726L12.5941 1.95955C12.5569 1.92308 12.517 1.88957 12.4746 1.85932L11.0316 0.829361C10.3364 0.33317 9.40291 0.33317 8.70775 0.829361L7.26479 1.85932C7.22241 1.88957 7.18246 1.92308 7.1453 1.95955L1.49271 7.50726C1.1095 7.88336 0.893616 8.39773 0.893616 8.93466V19C0.893616 19.5523 1.34133 20 1.89361 20H6.20112C6.75341 20 7.20112 19.5523 7.20112 19Z" fill="#FEC622"/>
</svg>
