<svg width="21" height="20" viewBox="0 0 21 20" fill="none" xmlns="http://www.w3.org/2000/svg">
<path d="M9.67756 20C11.1828 20 12.4419 18.9241 12.7311 17.5H6.62402C6.91332 18.9241 8.17248 20 9.67756 20Z" fill="#D5D5E1"/>
<path d="M15.5054 9.99924C15.502 9.99924 15.4987 10 15.4953 10C12.2881 10 9.67757 7.38327 9.67757 4.16672C9.67757 3.28247 9.88043 2.44659 10.2336 1.69495C10.0507 1.67755 9.86537 1.66672 9.67757 1.66672C6.46455 1.66672 3.8598 4.27826 3.8598 7.5V9.8233C3.8598 11.4725 3.13922 13.0292 1.87505 14.1008C1.45365 14.4617 1.26662 15.0366 1.41789 15.5975C1.59412 16.25 2.23739 16.6667 2.91232 16.6667H16.4387C17.1468 16.6667 17.8143 16.2067 17.9579 15.5109C18.0693 14.9725 17.8782 14.435 17.4618 14.0842C16.2534 13.0684 15.5544 11.5758 15.5054 9.99924Z" fill="#D5D5E1"/>
<path d="M19.651 4.16672C19.651 6.4679 17.7905 8.33328 15.4953 8.33328C13.2003 8.33328 11.3398 6.4679 11.3398 4.16672C11.3398 1.86554 13.2003 0 15.4953 0C17.7905 0 19.651 1.86554 19.651 4.16672Z" fill="#D5D5E1"/>
</svg>
