<svg width="21" height="20" viewBox="0 0 21 20" fill="none" xmlns="http://www.w3.org/2000/svg">
<g clip-path="url(#clip0)">
<path d="M19.081 7.82833L17.5185 7.62917C17.3896 7.23167 17.2309 6.84833 17.0455 6.48417L18.0105 5.23833C18.4011 4.73417 18.3554 4.0225 17.9091 3.58917L16.6001 2.27667C16.1637 1.825 15.454 1.78 14.9503 2.17083L13.7094 3.13833C13.3462 2.9525 12.9639 2.79333 12.5667 2.66417L12.368 1.1C12.2932 0.4725 11.7621 0 11.133 0H9.27128C8.64213 0 8.11104 0.4725 8.03624 1.0975L7.8376 2.66417C7.44033 2.79333 7.05802 2.95167 6.69482 3.13833L5.45313 2.17083C4.95114 1.78 4.24136 1.825 3.80835 2.2725L2.49934 3.58417C2.04888 4.0225 2.00316 4.73417 2.39379 5.23917L3.35872 6.48417C3.17255 6.84833 3.01463 7.23167 2.88581 7.62917L1.3258 7.82833C0.699973 7.90333 0.228729 8.43583 0.228729 9.06667V10.9333C0.228729 11.5642 0.699973 12.0967 1.32331 12.1717L2.88581 12.3708C3.01463 12.7683 3.17338 13.1517 3.35872 13.5158L2.39379 14.7617C2.00316 15.2658 2.04888 15.9775 2.49519 16.4108L3.80419 17.7233C4.24136 18.1742 4.9503 18.2192 5.45396 17.8283L6.69565 16.8608C7.05885 17.0475 7.44116 17.2067 7.8376 17.335L8.03624 18.8983C8.11104 19.5275 8.64213 20 9.27128 20H11.133C11.7621 20 12.2932 19.5275 12.368 18.9025L12.5667 17.3358C12.9631 17.2067 13.3454 17.0475 13.7086 16.8617L14.9511 17.8292C15.454 18.2208 16.1637 18.175 16.5959 17.7275L17.9049 16.415C18.3554 15.9767 18.4011 15.2658 18.0105 14.7608L17.0455 13.5158C17.2317 13.1517 17.3905 12.7683 17.5185 12.3708L19.0776 12.1717C19.7035 12.0967 20.1747 11.5642 20.1747 10.9333V9.06667C20.1755 8.43583 19.7043 7.90333 19.081 7.82833V7.82833ZM10.2021 14.1667C7.91074 14.1667 6.04655 12.2975 6.04655 10C6.04655 7.7025 7.91074 5.83333 10.2021 5.83333C12.4935 5.83333 14.3577 7.7025 14.3577 10C14.3577 12.2975 12.4935 14.1667 10.2021 14.1667Z" fill="#D5D5E1"/>
</g>
<defs>
<clipPath id="clip0">
<rect width="19.9468" height="20" fill="white" transform="translate(0.228729)"/>
</clipPath>
</defs>
</svg>
