<svg width="20" height="20" viewBox="0 0 20 20" fill="none" xmlns="http://www.w3.org/2000/svg">
<g clip-path="url(#clip0)">
<path d="M19.9478 8.2428C19.8169 7.83782 19.4577 7.55019 19.0327 7.51189L13.2601 6.98773L10.9775 1.64504C10.8092 1.25349 10.4259 1.00003 10 1.00003C9.57414 1.00003 9.19083 1.25349 9.02252 1.64595L6.7399 6.98773L0.966438 7.51189C0.542232 7.5511 0.183947 7.83782 0.0522602 8.2428C-0.0794266 8.64778 0.0421891 9.09197 0.36309 9.37198L4.72645 13.1987L3.4398 18.8664C3.34565 19.2831 3.5074 19.7139 3.85317 19.9638C4.03903 20.0981 4.25647 20.1665 4.47574 20.1665C4.6648 20.1665 4.85234 20.1155 5.02065 20.0148L10 17.0388L14.9776 20.0148C15.3418 20.2339 15.801 20.2139 16.146 19.9638C16.4919 19.7131 16.6535 19.2822 16.5593 18.8664L15.2727 13.1987L19.636 9.37274C19.9569 9.09197 20.0795 8.64854 19.9478 8.2428Z" fill="#FEBE02"/>
</g>
<defs>
<clipPath id="clip0">
<rect width="20" height="20" fill="white"/>
</clipPath>
</defs>
</svg>
