<svg width="18" height="18" viewBox="0 0 18 18" fill="none" xmlns="http://www.w3.org/2000/svg">
<g clip-path="url(#clip0)">
<path d="M17.953 6.90471C17.8351 6.54023 17.5118 6.28136 17.1294 6.24689L11.9341 5.77515L9.87972 0.966724C9.72824 0.614328 9.38326 0.386219 8.99997 0.386219C8.61667 0.386219 8.27169 0.614328 8.12022 0.967548L6.06586 5.77515L0.86974 6.24689C0.487956 6.28218 0.165499 6.54023 0.0469807 6.90471C-0.0715373 7.26919 0.0379168 7.66897 0.326727 7.92097L4.25375 11.365L3.09576 16.4659C3.01103 16.841 3.1566 17.2287 3.4678 17.4536C3.63507 17.5745 3.83077 17.636 4.02812 17.636C4.19827 17.636 4.36705 17.5901 4.51853 17.4995L8.99997 14.8211L13.4798 17.4995C13.8076 17.6967 14.2208 17.6787 14.5313 17.4536C14.8426 17.228 14.9881 16.8402 14.9033 16.4659L13.7454 11.365L17.6724 7.92166C17.9612 7.66897 18.0715 7.26988 17.953 6.90471Z" fill="white"/>
</g>
<defs>
<clipPath id="clip0">
<rect width="18" height="18" fill="white"/>
</clipPath>
</defs>
</svg>
